<?xml version="1.0" standalone="no"?>
<!DOCTYPE svg PUBLIC "-//W3C//DTD SVG 20010904//EN"
 "http://www.w3.org/TR/2001/REC-SVG-20010904/DTD/svg10.dtd">
<svg version="1.0" xmlns="http://www.w3.org/2000/svg"
 width="3104.000000pt" height="3104.000000pt" viewBox="0 0 3104.000000 3104.000000"
 preserveAspectRatio="xMidYMid meet">
<metadata>
Created by potrace 1.14, written by Peter Selinger 2001-2017
</metadata>
<g transform="translate(0.000000,3104.000000) scale(0.100000,-0.100000)"
fill="#000000" stroke="none">
<path d="M1557 20244 c-1 -2 -52 -5 -112 -8 -154 -8 -173 -11 -298 -40 -123
-30 -346 -122 -355 -147 -2 -5 -8 -9 -14 -9 -12 0 -95 -59 -148 -105 -61 -53
-141 -139 -173 -185 -17 -25 -33 -47 -37 -50 -7 -6 -36 -54 -75 -125 -35 -64
-91 -202 -110 -274 -29 -103 -29 -107 -40 -171 -4 -25 -9 -52 -10 -60 -13 -74
-21 -170 -25 -325 -3 -109 9 -241 35 -400 10 -59 39 -172 60 -229 13 -35 21
-67 17 -70 -3 -3 0 -6 6 -6 7 0 12 -6 12 -14 0 -8 13 -39 30 -70 16 -31 29
-57 28 -59 -3 -4 81 -136 100 -155 6 -7 12 -17 12 -21 0 -9 149 -163 197 -204
18 -15 37 -27 43 -27 5 0 10 -4 10 -10 0 -5 7 -10 15 -10 8 0 15 -4 15 -8 0
-12 163 -97 244 -127 82 -31 208 -65 239 -65 13 0 27 -3 31 -7 7 -7 41 -11
167 -16 42 -2 81 -7 88 -12 7 -4 17 -3 23 3 6 6 20 7 32 3 26 -9 249 -1 264
10 3 2 8 3 57 12 141 27 328 113 458 211 82 61 196 177 242 246 17 25 35 50
41 57 6 6 26 42 45 80 19 37 39 71 44 75 6 4 7 8 3 8 -4 0 2 21 13 48 12 26
22 54 24 62 2 8 11 42 20 75 8 33 18 80 21 105 3 24 7 48 10 51 9 15 -37 17
-311 16 l-280 -2 -3 -25 c-2 -14 -13 -52 -24 -85 -74 -212 -244 -367 -464
-424 -68 -17 -248 -22 -324 -8 -78 14 -210 66 -238 94 -7 7 -17 13 -22 13 -15
0 -122 103 -161 156 -46 63 -110 180 -101 188 3 3 -1 6 -8 6 -7 0 -11 3 -8 6
4 3 0 22 -9 42 -8 20 -17 45 -19 55 -2 11 -8 34 -13 51 -5 17 -12 47 -15 66
-2 19 -7 45 -10 58 -22 96 -22 399 0 505 2 12 7 38 10 57 3 19 8 44 12 55 3
11 7 22 7 25 37 155 135 332 234 422 79 71 127 105 144 100 4 -1 7 2 7 7 0 8
23 20 53 27 4 1 10 3 15 4 4 1 10 2 15 1 4 0 7 4 7 10 0 5 3 8 8 6 4 -3 18 0
32 5 29 12 73 18 150 22 31 1 61 6 68 10 7 4 12 4 12 -1 0 -4 18 -9 40 -10 36
-2 76 -9 105 -17 75 -21 95 -28 100 -36 3 -6 15 -10 26 -10 10 0 19 -3 19 -8
0 -4 14 -13 32 -21 38 -17 65 -39 138 -112 58 -58 73 -79 119 -169 30 -58 61
-154 61 -189 0 -15 6 -21 23 -22 31 0 483 0 534 0 29 1 41 5 38 14 -2 6 -6 31
-9 54 -13 105 -76 313 -98 321 -4 2 -5 8 -2 13 3 6 1 16 -5 23 -6 7 -23 35
-37 62 -35 66 -123 182 -187 247 -66 67 -161 147 -174 147 -6 0 -17 7 -24 16
-36 43 -329 162 -444 180 -63 9 -263 23 -268 18z"/>
<path d="M11938 20235 c-1 -1 -28 -5 -58 -9 -71 -9 -95 -13 -150 -26 -25 -7
-52 -13 -60 -15 -8 -2 -41 -13 -72 -25 -32 -12 -59 -20 -60 -19 -7 6 -203
-109 -247 -146 -33 -27 -131 -127 -158 -162 -28 -35 -102 -174 -106 -199 -1
-11 -6 -24 -10 -31 -4 -6 -8 -23 -9 -37 -1 -14 -5 -26 -8 -26 -6 0 -12 -54
-14 -137 0 -35 -5 -63 -9 -63 -5 0 -5 -5 -2 -10 3 -6 8 -36 11 -68 3 -31 6
-64 8 -72 6 -32 18 -76 23 -90 4 -8 7 -18 7 -21 2 -15 52 -114 59 -117 4 -2 7
-9 7 -16 0 -7 12 -26 28 -43 15 -17 36 -42 48 -55 28 -31 92 -88 132 -116 27
-19 187 -104 202 -107 3 -1 43 -14 90 -29 47 -15 92 -29 100 -31 8 -2 33 -8
55 -13 22 -6 51 -13 65 -16 14 -2 58 -12 99 -21 40 -9 80 -19 90 -20 9 -2 16
-4 16 -5 0 -1 9 -3 20 -5 11 -2 31 -6 45 -9 14 -4 36 -9 50 -11 14 -2 40 -8
58 -14 18 -5 35 -10 37 -10 3 -1 6 -1 8 -2 1 0 13 -2 27 -5 14 -2 32 -7 40
-11 8 -3 17 -7 20 -8 31 -7 129 -50 150 -65 15 -11 29 -18 31 -15 10 9 88 -73
110 -114 56 -108 39 -230 -46 -332 -22 -26 -94 -85 -110 -90 -5 -1 -34 -13
-63 -26 -30 -13 -66 -26 -80 -28 -15 -2 -47 -9 -72 -14 -25 -5 -101 -8 -170
-6 -141 4 -236 26 -334 78 -66 35 -166 121 -166 143 0 8 -4 14 -9 14 -10 0
-51 98 -54 128 0 12 -6 23 -12 25 -5 2 -138 3 -295 3 l-285 -1 2 -30 c7 -130
59 -296 122 -391 17 -25 31 -47 31 -50 0 -2 8 -12 18 -22 9 -10 29 -32 43 -48
36 -41 109 -104 120 -104 5 0 9 -3 9 -7 0 -25 253 -142 365 -169 17 -4 37 -9
45 -11 71 -19 219 -39 278 -38 23 0 42 -3 42 -7 0 -5 9 -4 19 2 14 7 22 7 26
0 4 -6 10 -8 15 -5 4 3 59 7 122 10 62 2 128 7 146 9 18 3 52 8 75 11 23 4 45
9 50 12 4 2 20 6 36 8 38 5 136 34 180 53 20 9 38 16 42 16 8 1 143 70 149 76
3 3 25 19 49 35 55 37 188 170 196 196 4 10 11 19 16 19 5 0 9 6 9 14 0 8 3
16 8 18 10 4 42 67 42 84 0 8 4 14 8 14 11 0 42 105 59 200 9 47 8 266 -1 310
-22 111 -68 227 -107 268 -10 12 -19 25 -19 30 0 10 -91 97 -143 136 -68 52
-226 132 -249 128 -5 -1 -8 3 -8 8 0 5 -3 9 -7 8 -5 -1 -41 8 -80 21 -40 12
-76 23 -80 23 -5 0 -18 4 -31 9 -12 5 -33 11 -45 13 -21 4 -210 43 -252 53
-11 2 -29 6 -40 8 -37 9 -65 15 -87 20 -13 3 -34 8 -48 10 -39 7 -53 11 -83
24 -16 6 -32 9 -37 6 -5 -3 -11 -1 -14 4 -3 5 -18 12 -33 15 -47 11 -149 65
-190 101 -35 30 -59 67 -79 120 -9 25 -13 137 -5 150 3 6 6 16 7 23 5 30 49
99 86 134 41 38 141 92 188 102 14 2 48 9 75 15 83 16 225 11 340 -13 11 -2
43 -14 70 -27 28 -12 53 -23 56 -23 11 -2 71 -51 105 -85 34 -35 81 -118 89
-158 12 -57 15 -66 20 -71 4 -4 483 -7 546 -3 13 1 16 11 13 54 -1 28 -3 52
-4 52 -1 0 -3 14 -5 30 -1 17 -3 30 -4 30 -2 0 -4 6 -14 45 -15 60 -23 83 -51
140 -42 88 -79 140 -153 215 -60 61 -189 155 -212 155 -6 0 -11 5 -11 10 0 6
-9 10 -19 10 -11 0 -22 4 -25 9 -6 8 -127 53 -181 67 -16 4 -34 8 -40 10 -18
5 -50 12 -95 19 -25 5 -56 10 -70 12 -29 5 -367 13 -372 8z"/>
<path d="M3899 20188 c0 -2 -2 -11 -4 -21 -2 -10 -7 -26 -11 -35 -4 -9 -8 -19
-9 -22 -1 -3 -4 -12 -8 -20 -6 -16 -53 -151 -113 -330 -19 -58 -39 -114 -44
-125 -14 -34 -41 -114 -41 -120 0 -2 -11 -35 -25 -72 -14 -38 -35 -95 -46
-128 -11 -33 -22 -67 -25 -75 -3 -8 -7 -22 -9 -30 -2 -8 -7 -23 -12 -35 -21
-46 -34 -81 -39 -105 -2 -13 -9 -30 -15 -37 -6 -7 -7 -13 -3 -13 4 0 2 -7 -5
-15 -7 -8 -10 -15 -6 -15 3 0 -1 -17 -10 -37 -15 -36 -101 -282 -109 -313 -2
-8 -16 -46 -30 -85 -15 -38 -28 -77 -30 -85 -3 -12 -61 -176 -88 -250 -6 -16
-40 -121 -42 -130 -1 -3 -7 -18 -13 -33 -7 -16 -19 -52 -28 -80 -9 -29 -21
-63 -27 -77 -6 -14 -11 -27 -12 -30 -7 -26 -42 -128 -80 -235 -26 -71 -47
-134 -49 -140 -1 -5 -5 -16 -9 -22 -5 -7 -5 -13 -1 -13 3 0 2 -6 -3 -12 -11
-14 -27 -68 -25 -80 1 -5 -3 -8 -9 -8 -5 0 -8 -4 -5 -8 3 -5 -1 -20 -9 -35
l-14 -27 314 0 315 0 7 28 c4 15 8 29 8 32 2 12 17 57 25 75 5 11 22 67 40
125 17 58 39 130 50 160 10 30 34 107 54 170 l35 115 498 -1 c274 -1 503 -2
510 -3 9 -1 33 -46 24 -46 -1 0 10 -34 24 -75 15 -41 28 -84 30 -95 3 -11 20
-65 38 -120 19 -55 35 -103 36 -107 1 -4 3 -13 6 -20 2 -7 13 -47 25 -88 12
-41 24 -81 26 -88 2 -7 4 -16 5 -20 0 -4 5 -15 10 -24 9 -17 35 -18 329 -18
176 0 320 2 320 4 0 3 -13 40 -29 84 -17 44 -27 83 -24 86 4 3 1 6 -5 6 -7 0
-12 9 -12 20 0 17 -4 29 -31 95 -9 22 -68 194 -131 380 -22 66 -45 131 -51
145 -5 14 -11 32 -13 41 -2 9 -9 29 -15 45 -6 16 -42 118 -80 226 -37 109 -71
202 -74 208 -4 6 -9 22 -11 37 -3 15 -10 33 -16 40 -6 7 -8 13 -4 13 4 0 0 14
-9 30 -9 17 -13 30 -10 30 3 0 -1 14 -10 30 -9 17 -13 30 -9 30 4 0 2 6 -3 13
-5 6 -20 44 -32 82 -12 39 -26 79 -31 90 -8 18 -76 213 -120 345 -10 30 -46
134 -80 230 -34 96 -63 180 -64 185 -3 10 -8 23 -29 80 -6 17 -13 37 -14 45
-1 8 -6 23 -12 35 -5 11 -27 71 -47 133 l-39 112 -357 0 c-197 0 -358 -1 -359
-2z m362 -568 c1 -5 3 -14 4 -20 1 -5 4 -12 5 -15 1 -3 3 -8 4 -12 1 -5 15
-48 31 -98 16 -49 30 -97 32 -105 7 -29 11 -45 13 -47 2 -2 3 -6 5 -10 1 -5 4
-15 7 -23 9 -24 91 -284 94 -295 1 -5 14 -48 29 -95 15 -47 28 -89 29 -95 2
-5 6 -17 9 -25 9 -24 29 -90 31 -103 1 -7 4 -16 7 -22 3 -5 12 -32 19 -60 7
-27 16 -54 20 -60 4 -5 11 -28 14 -50 l7 -40 -371 1 c-204 1 -373 4 -375 6 -2
2 9 45 25 96 17 51 30 99 30 107 0 8 5 15 12 15 6 0 9 3 6 6 -4 3 -2 18 2 32
32 104 63 203 95 302 20 63 46 147 57 185 11 39 25 76 30 83 6 6 8 12 4 12 -3
0 -1 11 4 25 5 14 12 36 14 48 3 12 14 46 25 75 10 28 18 52 16 52 -2 0 7 30
21 67 13 38 24 69 24 70 0 8 20 1 21 -7z"/>
<path d="M5916 18745 c0 -794 2 -1447 5 -1449 7 -8 557 -8 569 -1 5 3 10 0 10
-7 1 -9 4 -8 13 3 9 12 12 142 12 535 l-1 519 126 5 c69 3 179 3 245 1 l120
-3 48 -99 c27 -54 48 -101 47 -105 -1 -4 2 -10 7 -13 5 -3 52 -89 103 -191
164 -326 215 -425 225 -440 5 -8 10 -17 10 -20 1 -9 87 -175 95 -184 4 -4 92
-8 194 -8 102 1 256 1 340 1 l155 1 -32 58 c-18 31 -39 71 -47 87 -8 17 -19
33 -25 37 -5 4 -7 8 -3 8 4 0 -1 15 -11 33 -53 96 -85 154 -146 272 -37 72
-80 153 -95 180 -15 28 -49 91 -75 140 -26 50 -50 95 -54 100 -3 6 -6 17 -8
25 -1 8 -9 20 -18 26 -9 7 -16 15 -15 18 1 8 -58 127 -73 144 -13 16 -7 21 68
62 237 128 403 365 442 633 8 54 7 217 -1 282 -24 198 -95 365 -206 487 -17
18 -30 36 -30 40 0 5 -6 8 -14 8 -8 0 -16 4 -18 8 -1 4 -23 23 -48 42 -25 19
-47 38 -50 41 -3 3 -20 12 -37 20 -18 8 -33 18 -33 22 0 5 -4 5 -10 2 -5 -3
-10 -1 -10 4 0 6 -6 11 -12 11 -7 0 -25 6 -39 14 -15 7 -50 19 -78 27 -28 7
-51 15 -51 19 0 3 -8 6 -17 6 -10 1 -31 4 -48 8 -132 31 -223 34 -870 35
l-660 1 1 -1445z m1319 945 c88 -34 132 -66 205 -149 25 -29 47 -73 68 -136
25 -78 29 -232 8 -293 -8 -23 -14 -43 -13 -45 1 -1 -13 -27 -30 -59 -62 -108
-172 -189 -294 -213 -30 -6 -87 -7 -369 -6 l-286 1 2 458 c1 251 2 459 3 462
0 3 146 5 324 4 310 -1 324 -2 382 -24z"/>
<path d="M8409 20188 c-1 -2 -2 -114 -3 -251 -1 -229 0 -247 17 -247 9 -1 197
-1 417 -1 298 -1 400 -4 401 -12 0 -7 1 -546 1 -1199 l1 -1188 26 -1 c14 0
150 -1 301 -1 l275 0 3 1200 2 1201 378 0 c207 0 396 0 420 0 l42 1 0 250 0
250 -1140 0 c-627 0 -1140 -1 -1141 -2z"/>
<path d="M13367 20173 c4 -10 16 -34 28 -53 12 -19 37 -64 56 -100 18 -36 37
-66 41 -68 5 -2 8 -8 8 -14 0 -5 17 -40 39 -76 21 -37 54 -96 73 -132 46 -85
86 -158 108 -195 19 -32 55 -97 103 -185 16 -30 60 -109 97 -175 37 -66 105
-187 150 -270 46 -82 92 -166 103 -185 11 -19 32 -57 47 -85 15 -27 54 -97 86
-155 l59 -105 0 -537 c0 -295 3 -539 6 -542 6 -7 589 -10 595 -3 3 2 5 245 5
540 0 475 2 539 16 569 9 18 21 36 27 40 6 4 8 8 4 8 -4 0 8 26 26 58 18 31
45 78 59 104 15 26 47 84 72 128 25 43 45 84 45 90 0 5 3 10 8 10 4 0 15 17
25 38 10 20 29 57 43 82 14 25 38 67 52 93 15 26 32 56 37 65 19 31 53 97 54
105 0 4 5 13 11 20 16 17 160 278 160 288 0 5 5 9 10 9 6 0 10 5 10 12 0 6 20
45 44 87 24 42 58 103 76 136 38 70 107 193 120 215 5 8 19 34 30 57 12 23 32
57 44 75 50 74 73 69 -290 66 l-325 -3 -45 -85 c-44 -83 -140 -266 -251 -480
-137 -263 -187 -356 -196 -367 -5 -7 -6 -13 -1 -13 5 0 4 -4 -2 -8 -6 -4 -23
-32 -38 -62 -56 -114 -111 -214 -121 -217 -6 -2 -18 11 -26 29 -26 55 -151
292 -160 304 -5 6 -6 14 -2 17 3 4 2 7 -4 7 -6 0 -13 10 -17 23 -7 28 -8 30
-19 42 -8 9 -91 165 -227 429 -107 207 -152 291 -161 301 -5 5 -9 17 -9 27 0
10 -4 18 -9 18 -5 0 -11 9 -14 20 -5 19 -14 20 -336 20 -310 0 -330 -1 -324
-17z"/>
<path d="M16249 17916 c-4 -4 -74 -15 -111 -19 -10 -1 -18 -4 -18 -8 0 -4 -14
-12 -30 -19 -62 -26 -130 -114 -157 -205 -10 -31 -9 -122 1 -163 10 -46 62
-125 101 -158 130 -106 308 -102 432 9 91 82 126 224 84 342 -12 33 -26 62
-31 63 -6 2 -10 9 -10 17 0 19 -78 85 -126 106 -23 10 -59 21 -80 25 -21 3
-42 8 -45 10 -3 2 -8 2 -10 0z"/>
<path d="M18540 15622 c0 -4 -24 -7 -53 -8 -92 -2 -294 -27 -352 -44 -16 -5
-43 -12 -60 -15 -43 -7 -149 -38 -231 -68 -40 -14 -75 -23 -78 -20 -3 4 -6 1
-6 -5 0 -7 -5 -12 -11 -12 -18 0 -232 -107 -286 -144 -29 -19 -53 -32 -53 -28
0 4 -5 -1 -11 -10 -5 -10 -15 -18 -20 -18 -12 0 -69 -43 -164 -125 -222 -190
-389 -407 -520 -679 -30 -62 -55 -116 -55 -119 0 -3 -10 -27 -22 -54 -11 -26
-22 -52 -23 -58 0 -5 -6 -23 -13 -38 -7 -16 -12 -32 -12 -35 0 -4 -11 -41 -24
-82 -14 -41 -28 -90 -31 -109 -3 -19 -8 -37 -10 -41 -5 -9 -15 -54 -35 -170
-18 -109 -20 -115 -24 -154 -3 -20 -8 -41 -11 -46 -3 -6 -1 -10 5 -10 6 0 8
-5 4 -12 -4 -7 -9 -30 -11 -52 -1 -23 -5 -70 -7 -106 -7 -80 -7 -363 -1 -445
9 -123 15 -191 19 -225 3 -19 8 -53 10 -75 3 -22 10 -65 16 -95 6 -30 13 -71
16 -90 3 -19 10 -53 16 -75 5 -22 12 -47 14 -55 13 -53 40 -147 45 -155 4 -5
9 -22 13 -37 3 -15 11 -40 18 -55 6 -15 13 -37 15 -47 2 -11 7 -24 12 -30 4
-6 18 -38 31 -71 13 -33 37 -85 53 -115 16 -30 41 -77 55 -105 15 -27 31 -53
37 -57 7 -5 7 -8 0 -8 -7 0 -7 -3 0 -8 6 -4 23 -27 40 -52 105 -159 281 -357
394 -443 31 -23 62 -48 70 -55 38 -36 327 -212 348 -212 2 0 25 -10 51 -21 46
-21 167 -69 177 -69 6 -1 29 -8 53 -17 9 -3 22 -7 27 -8 6 -1 12 -3 15 -4 16
-8 118 -30 165 -37 21 -3 44 -8 49 -12 6 -3 31 -8 56 -10 25 -2 47 -7 50 -10
18 -24 606 -22 755 3 17 3 48 7 70 9 22 3 76 12 120 22 104 22 98 20 115 27 8
3 26 8 40 10 48 9 175 51 181 60 3 5 8 7 10 6 2 -1 20 3 39 11 19 7 37 13 40
14 16 3 227 112 238 122 6 7 21 16 32 19 11 3 20 11 20 16 0 5 5 9 10 9 24 0
156 106 260 211 100 100 141 146 169 192 12 20 26 37 31 37 5 0 12 10 16 23 4
12 10 24 14 27 15 10 110 187 149 275 58 136 117 322 112 360 -1 12 -301 14
-301 2 0 -5 -5 -5 -12 -1 -17 11 -228 12 -228 2 0 -5 -10 -3 -22 3 -13 7 -25
11 -28 10 -3 -2 -13 -7 -23 -13 -10 -5 -16 -12 -14 -15 3 -3 -3 -24 -13 -48
-10 -24 -16 -46 -13 -49 4 -3 0 -6 -7 -6 -7 0 -11 -3 -7 -6 11 -12 -101 -208
-164 -289 -82 -102 -270 -263 -349 -299 -14 -6 -27 -13 -30 -16 -10 -12 -225
-104 -270 -116 -149 -39 -270 -62 -369 -69 -30 -3 -56 -7 -59 -9 -2 -3 -13 -1
-23 5 -11 5 -19 6 -19 2 0 -10 -136 -11 -145 -1 -4 4 -15 4 -24 -1 -9 -5 -25
-7 -36 -4 -11 2 -45 6 -75 8 -114 10 -194 27 -335 71 -90 29 -275 113 -275
126 0 4 -6 8 -13 8 -26 0 -183 124 -272 214 -130 131 -202 231 -291 404 -29
56 -53 103 -53 105 0 1 -5 16 -11 32 -18 46 -51 138 -56 155 -17 58 -63 241
-68 270 -26 157 -33 216 -41 340 -2 47 -5 85 -5 85 -1 0 -2 30 -3 68 -1 37 0
67 3 67 3 0 6 48 6 108 2 153 6 222 13 222 3 0 6 14 5 31 -1 33 35 233 56 309
7 25 13 50 15 55 1 6 4 17 7 25 20 53 58 161 58 165 0 3 10 26 21 52 178 418
483 719 867 857 39 14 72 23 72 20 0 -4 7 -1 15 6 9 7 26 14 38 14 12 1 27 4
32 8 6 3 33 9 60 13 28 5 57 10 65 11 122 25 497 24 600 -1 14 -4 34 -8 45
-10 47 -9 109 -26 119 -33 6 -3 18 -8 27 -9 9 -1 37 -11 63 -22 25 -11 48 -20
51 -21 14 0 119 -59 195 -107 229 -148 392 -334 513 -583 28 -57 50 -110 50
-117 0 -7 3 -13 6 -13 4 0 8 -12 9 -27 1 -15 7 -30 13 -34 6 -3 10 -9 10 -13
-5 -35 -9 -34 309 -34 171 1 312 4 315 8 2 3 0 24 -5 46 -5 21 -11 51 -14 65
-5 34 -37 144 -51 179 -1 3 -6 20 -10 38 -4 17 -11 32 -15 32 -3 0 -7 6 -7 13
0 15 -72 177 -88 197 -7 8 -14 22 -18 31 -8 25 -99 164 -108 167 -5 2 -9 8 -9
14 0 6 -21 36 -47 67 -27 31 -52 62 -58 69 -23 29 -140 143 -177 174 -23 18
-46 38 -52 43 -44 41 -244 169 -336 215 -162 80 -407 166 -527 185 -11 2 -29
5 -40 9 -10 3 -38 8 -63 11 -25 3 -58 9 -75 11 -65 12 -94 15 -185 19 -52 2
-95 5 -95 5 0 1 -30 2 -68 3 -37 1 -67 -1 -67 -5 0 -4 -13 -3 -30 2 -16 5 -30
6 -30 2z"/>
<path d="M573 15542 l-81 -3 0 -2408 c0 -2359 0 -2409 19 -2414 10 -3 17 -1
13 4 -3 5 6 5 20 -1 17 -6 27 -6 32 1 4 7 10 7 18 0 7 -6 15 -8 19 -5 7 7 77
11 77 4 0 -3 11 -5 25 -5 14 0 25 4 25 8 0 4 9 3 20 -3 13 -7 20 -7 20 -1 0 7
9 7 25 1 15 -6 26 -6 30 1 4 5 11 6 17 3 16 -10 68 -11 68 -1 0 5 5 5 11 2 16
-11 59 -13 59 -4 0 5 11 4 24 -1 16 -6 29 -5 40 3 15 11 16 175 16 1860 0
1564 2 1847 14 1847 8 0 22 -19 31 -42 9 -24 22 -54 28 -68 6 -14 11 -27 12
-30 1 -3 13 -31 28 -64 15 -32 27 -60 27 -62 0 -2 11 -27 24 -56 21 -47 42
-97 92 -215 26 -62 42 -98 68 -155 14 -31 26 -59 26 -62 0 -6 46 -111 62 -140
5 -10 16 -35 23 -55 7 -20 25 -63 40 -96 15 -33 37 -85 50 -115 44 -104 58
-135 76 -174 11 -22 19 -43 19 -47 0 -3 12 -33 27 -65 15 -33 28 -61 29 -64 1
-6 1 -6 91 -215 88 -201 86 -199 85 -207 -1 -5 2 -8 8 -8 5 0 10 -9 10 -19 0
-11 5 -23 10 -26 6 -4 8 -11 5 -16 -4 -5 -1 -9 4 -9 6 0 11 -6 11 -14 0 -8 14
-45 31 -83 16 -37 34 -77 39 -88 4 -11 20 -46 34 -78 14 -32 26 -60 26 -63 0
-3 12 -31 26 -62 28 -62 36 -80 84 -192 17 -41 40 -94 51 -118 11 -24 27 -62
36 -85 9 -23 20 -46 25 -52 4 -5 8 -17 8 -27 0 -10 4 -18 10 -18 5 0 9 -3 8
-7 -2 -7 37 -105 92 -228 10 -22 30 -69 45 -105 15 -36 36 -85 47 -110 11 -25
26 -58 33 -75 69 -164 109 -251 116 -256 5 -3 124 -5 265 -5 l256 1 31 75 c17
41 34 77 37 80 3 3 6 12 8 20 2 8 15 40 29 70 14 30 33 76 43 101 10 26 29 68
41 95 12 27 27 63 34 79 7 17 25 56 39 88 14 32 26 60 26 63 0 3 11 29 24 57
22 47 37 83 41 97 0 3 11 28 24 55 12 28 49 111 81 185 32 74 66 153 76 175 9
22 18 42 19 45 1 3 9 22 18 44 9 21 17 40 17 42 0 2 12 29 26 61 15 32 32 72
39 88 7 17 23 53 36 80 13 28 24 55 25 60 0 6 13 37 28 70 16 33 34 75 42 93
8 17 20 47 28 65 8 17 33 77 56 132 23 55 46 105 50 110 5 6 8 12 8 15 1 3 6
19 13 35 7 17 13 32 14 35 3 10 27 66 57 134 33 77 41 97 87 199 16 37 27 67
23 67 -4 0 -1 4 6 8 7 5 14 17 16 28 4 18 25 67 69 164 11 25 22 50 23 55 3
11 69 163 110 253 13 29 24 55 24 57 0 3 9 27 21 53 35 78 37 83 88 200 27 61
46 112 43 112 -4 0 -2 4 3 8 6 4 22 35 35 68 14 37 29 60 36 57 9 -3 12 -424
12 -1826 1 -1002 1 -1836 1 -1853 1 -26 6 -33 26 -36 14 -3 25 -1 25 3 0 5 11
4 25 -1 16 -6 25 -6 25 1 0 6 6 6 19 -1 14 -7 21 -6 24 3 3 9 7 9 17 0 8 -8
20 -9 36 -3 13 5 24 6 24 2 0 -4 27 -7 59 -7 33 0 57 3 54 7 -2 5 7 4 21 -2
16 -6 27 -6 31 0 4 7 13 6 25 0 13 -7 21 -7 25 0 4 6 12 7 18 3 17 -10 47 -11
47 -1 0 5 9 4 20 -2 12 -6 20 -7 20 -1 0 5 8 7 18 4 18 -4 19 74 19 2406 l0
2411 -86 0 c-614 4 -651 2 -651 -31 0 -5 -32 -85 -71 -177 -92 -217 -84 -198
-115 -267 -14 -33 -35 -82 -46 -110 -11 -27 -33 -78 -49 -113 -16 -35 -29 -65
-29 -68 0 -2 -45 -109 -101 -237 -55 -127 -102 -236 -103 -242 -1 -5 -11 -28
-21 -50 -10 -22 -19 -42 -20 -45 0 -3 -11 -27 -23 -54 -12 -27 -22 -51 -22
-53 0 -3 -6 -19 -14 -36 -39 -87 -66 -148 -66 -151 0 -2 -12 -30 -27 -62 -14
-33 -27 -63 -29 -69 -1 -5 -14 -37 -29 -70 -16 -33 -29 -65 -30 -71 -2 -5 -15
-37 -30 -70 -15 -32 -35 -79 -45 -104 -10 -25 -29 -67 -41 -95 -13 -27 -24
-54 -25 -60 -1 -5 -12 -32 -25 -60 -12 -27 -23 -52 -23 -55 -1 -3 -9 -21 -18
-40 -33 -72 -82 -195 -80 -202 1 -5 -2 -8 -6 -8 -4 0 -16 -24 -27 -52 -10 -29
-22 -58 -26 -64 -5 -6 -6 -14 -2 -17 3 -4 2 -7 -4 -7 -6 0 -14 -11 -17 -25 -6
-23 -25 -68 -73 -175 -9 -19 -16 -41 -16 -47 0 -7 -4 -13 -9 -13 -4 0 -8 -5
-8 -10 0 -6 -9 -29 -19 -53 -10 -23 -106 -247 -212 -497 -105 -250 -194 -457
-196 -460 -12 -13 -38 24 -68 95 -18 44 -40 94 -49 110 -9 17 -16 34 -16 38 0
5 -12 34 -26 65 -14 31 -28 65 -30 76 -2 10 -8 23 -13 30 -5 6 -19 36 -31 66
-12 30 -32 78 -46 108 -13 29 -24 55 -24 58 0 3 -13 35 -30 71 -17 35 -30 66
-30 67 0 2 -8 21 -17 42 -9 22 -17 41 -18 44 -2 6 -33 78 -45 105 -12 27 -43
99 -45 105 -1 3 -8 21 -17 40 -8 19 -28 64 -43 100 -15 36 -36 84 -46 107 -10
23 -19 44 -19 46 0 3 -10 26 -22 53 -12 27 -22 51 -23 54 0 3 -3 10 -6 15 -4
6 -23 51 -44 100 -20 50 -46 110 -57 135 -11 25 -24 56 -30 70 -6 14 -14 33
-19 42 -5 10 -9 24 -9 32 0 7 -7 19 -15 26 -8 6 -14 15 -13 18 1 7 -6 29 -27
77 -40 92 -150 350 -275 645 -126 296 -254 597 -279 655 -5 11 -16 37 -25 58
-9 20 -23 54 -32 75 -31 72 -43 99 -129 302 -129 308 -120 290 -158 290 -17 0
-142 1 -277 3 -135 1 -282 1 -327 -1z"/>
<path d="M6384 15542 c-30 -3 -31 -5 -33 -54 -1 -28 -4 -55 -7 -59 -3 -5 -2
-9 3 -9 8 0 8 -190 -1 -222 -2 -10 -1 -18 2 -18 8 0 6 -194 -2 -222 -2 -10 -1
-18 2 -18 8 0 6 -194 -2 -222 -2 -10 -1 -18 2 -18 8 0 6 -285 -2 -306 -3 -8
-2 -14 2 -14 7 0 6 -192 -2 -222 -2 -10 -1 -18 2 -18 8 0 6 -194 -2 -222 -2
-10 -1 -18 2 -18 8 0 6 -194 -2 -222 -2 -10 -1 -18 2 -18 8 0 6 -194 -2 -222
-2 -10 -1 -18 2 -18 8 0 6 -194 -2 -222 -2 -10 -1 -18 4 -18 4 0 4 -18 0 -40
-4 -22 -5 -40 -1 -40 7 0 4 -195 -3 -222 -2 -10 -1 -18 2 -18 8 0 6 -194 -2
-222 -2 -10 -1 -18 2 -18 8 0 6 -194 -2 -222 -2 -10 -1 -18 2 -18 8 0 6 -194
-2 -222 -2 -10 -1 -18 2 -18 8 0 6 -285 -2 -306 -3 -8 -2 -14 2 -14 7 0 6
-192 -2 -222 -2 -10 -1 -18 2 -18 8 0 6 -194 -2 -222 -2 -10 -1 -18 2 -18 8 0
6 -194 -2 -222 -2 -10 -1 -18 2 -18 8 0 6 -194 -2 -222 -2 -10 -1 -18 2 -18 4
0 5 -30 4 -66 -2 -39 1 -71 7 -77 6 -6 11 -7 11 -2 0 6 18 10 40 10 22 0 40
-2 40 -5 0 -3 24 -5 54 -5 30 0 52 3 49 7 -2 5 7 4 21 -2 16 -6 26 -6 26 0 0
6 9 6 25 0 15 -6 26 -6 30 0 4 6 14 7 23 2 19 -9 54 -8 71 2 6 4 11 2 11 -4 0
-8 6 -8 20 0 14 8 20 8 20 0 0 -8 6 -8 20 0 14 8 20 8 20 0 0 -7 6 -8 18 -1
21 11 30 11 59 0 13 -5 25 -4 28 1 4 7 13 6 25 0 13 -7 21 -7 25 0 4 7 13 7
26 0 13 -8 19 -7 19 0 0 7 6 8 19 0 13 -7 22 -7 26 0 4 7 13 7 26 0 12 -7 19
-7 19 -1 0 7 9 7 23 3 25 -9 59 -8 76 2 6 4 11 2 11 -4 0 -8 6 -8 20 0 14 8
20 8 20 0 0 -8 6 -8 20 0 14 8 20 8 20 0 0 -6 5 -8 11 -5 13 9 79 12 79 5 0
-3 24 -5 54 -5 30 0 52 3 49 7 -2 5 7 4 21 -2 16 -6 26 -6 26 0 0 6 9 6 25 0
15 -6 26 -6 30 0 4 6 14 7 23 2 19 -9 54 -8 71 2 6 4 11 2 11 -4 0 -8 6 -8 20
0 14 8 20 8 20 0 0 -8 6 -8 20 0 14 8 20 8 20 0 0 -7 6 -8 18 -1 21 11 30 11
59 0 13 -5 25 -4 28 1 4 7 13 6 25 0 13 -7 21 -7 25 0 4 7 13 7 26 0 13 -8 19
-7 19 0 0 7 6 8 19 0 13 -7 22 -7 26 0 4 7 13 7 26 0 12 -7 19 -7 19 -1 0 7 9
7 23 3 25 -9 59 -8 76 2 6 4 11 2 11 -4 0 -8 6 -8 20 0 14 8 20 8 20 0 0 -8 6
-8 20 0 14 8 20 8 20 0 0 -6 5 -8 11 -5 13 9 79 12 79 5 0 -3 24 -5 54 -5 30
0 52 3 49 7 -2 5 7 4 21 -2 16 -6 26 -6 26 0 0 6 9 6 25 0 15 -6 26 -6 30 0 4
6 14 7 23 2 19 -9 54 -8 71 2 6 4 11 2 11 -4 0 -8 6 -8 20 0 14 8 20 8 20 0 0
-8 6 -8 20 0 14 8 20 8 20 0 0 -7 6 -8 18 -1 21 11 30 11 59 0 13 -5 25 -4 28
1 4 7 13 6 25 0 13 -7 21 -7 25 0 4 7 13 7 26 0 13 -8 19 -7 19 0 0 7 6 8 19
0 13 -7 22 -7 26 0 4 7 13 7 26 0 12 -7 19 -7 19 -1 0 7 9 7 23 3 25 -9 64 -8
74 2 3 3 12 1 19 -5 8 -7 14 -7 19 1 4 7 12 7 26 0 13 -8 19 -7 19 0 0 8 6 8
20 0 11 -6 20 -7 20 -3 0 4 14 8 30 8 17 0 30 -2 30 -5 0 -7 59 -5 66 3 3 3
12 3 19 0 11 -4 14 43 15 266 l0 271 -87 0 c-49 1 -602 1 -1230 1 l-1142 1 2
826 2 827 1140 2 c627 1 1151 2 1165 2 l25 1 -1 261 c-1 143 -4 263 -8 266 -3
3 -527 5 -1165 5 l-1160 0 0 775 c0 648 2 774 13 770 7 -3 19 0 25 6 8 8 11 8
11 0 0 -9 27 -11 38 -3 7 7 29 5 39 -2 6 -5 14 -5 18 2 4 7 12 7 26 0 13 -8
25 -7 40 0 15 8 24 8 34 0 9 -8 15 -8 20 0 4 7 12 7 26 0 13 -8 25 -7 40 0 15
8 24 8 34 0 9 -8 15 -8 20 0 4 7 12 7 26 0 13 -8 25 -7 40 0 15 8 24 8 34 0 9
-8 15 -8 20 0 4 7 12 7 26 0 13 -8 25 -7 40 0 15 8 24 8 34 0 9 -8 15 -8 20 0
4 7 12 7 26 0 11 -6 24 -8 30 -5 16 10 59 13 64 5 3 -4 20 -4 39 0 19 4 40 4
46 0 7 -4 26 -4 41 0 16 5 31 5 34 1 2 -5 22 -5 44 -1 22 4 45 4 52 -1 7 -4
23 -3 35 1 13 5 26 5 29 1 3 -5 20 -5 39 -1 19 4 40 4 46 0 7 -4 26 -4 41 0
16 5 31 5 34 1 2 -4 24 -5 49 -1 24 4 52 3 60 -2 11 -6 16 -5 16 3 0 9 3 9 14
0 10 -8 16 -9 21 -1 4 7 12 7 26 0 13 -8 25 -7 40 0 15 8 24 8 34 0 9 -8 15
-8 20 0 4 7 12 7 26 0 13 -8 25 -7 40 0 15 8 24 8 34 0 9 -8 15 -8 20 0 4 7
12 7 26 0 13 -8 25 -7 40 0 15 8 24 8 34 0 9 -8 15 -8 20 0 4 7 12 7 26 0 13
-8 25 -7 40 0 15 8 24 8 34 0 9 -8 15 -8 20 0 4 7 12 7 26 0 13 -8 25 -7 40 0
15 8 24 8 34 0 9 -8 15 -8 20 0 4 7 12 7 26 0 13 -8 25 -7 40 0 15 8 24 8 34
0 9 -8 15 -8 20 0 4 7 12 7 26 0 13 -8 25 -7 40 0 15 8 24 8 34 0 9 -8 15 -8
20 0 4 7 12 7 26 0 13 -8 25 -7 40 0 15 8 24 8 34 0 9 -8 15 -8 20 0 3 6 11 8
16 4 17 -10 68 -11 62 -1 -3 5 4 6 16 2 l21 -6 0 270 0 271 -62 0 c-594 3
-2961 4 -2984 2z"/>
<path d="M10280 15540 l-35 -5 0 -2400 c0 -1320 4 -2406 9 -2413 5 -9 12 -10
20 -3 7 6 17 6 26 1 8 -5 21 -5 30 0 11 6 21 5 27 -1 7 -7 13 -7 17 -1 4 7 17
7 36 2 18 -5 30 -5 30 0 0 6 10 6 25 0 15 -6 26 -6 30 1 4 5 11 6 17 3 16 -10
69 -11 75 -1 3 4 11 3 18 -3 9 -8 15 -8 20 0 4 7 12 7 26 0 13 -8 19 -7 19 0
0 7 6 8 19 0 14 -7 21 -6 24 3 3 9 7 9 17 0 8 -8 20 -9 36 -3 13 5 24 6 24 2
0 -4 29 -7 65 -7 36 0 65 3 65 7 0 4 11 3 25 -2 16 -6 25 -6 25 1 0 6 7 6 18
2 20 -10 64 -9 81 1 6 4 11 2 11 -4 0 -8 6 -8 20 0 14 8 20 8 20 0 0 -8 6 -8
20 0 14 8 20 8 20 0 0 -6 5 -8 11 -5 13 9 79 12 79 5 0 -3 11 -5 25 -5 14 0
25 4 25 8 0 4 9 3 20 -3 12 -6 20 -7 20 -1 0 6 11 6 30 1 18 -5 30 -5 30 0 0
6 10 6 25 0 15 -6 26 -6 30 1 4 5 11 6 17 3 16 -10 69 -11 75 -1 3 4 11 3 18
-3 9 -8 15 -8 20 0 4 7 12 7 26 0 13 -8 19 -7 19 0 0 7 6 8 19 0 14 -7 21 -6
24 3 3 9 7 9 17 0 8 -8 20 -9 36 -3 13 5 24 6 24 2 0 -4 13 -7 29 -7 16 0 27
3 24 7 -2 5 6 4 19 -1 14 -5 31 -5 40 0 11 6 19 5 23 -1 4 -7 13 -7 26 0 13 8
19 7 19 0 0 -6 5 -8 10 -5 6 4 61 8 123 11 163 6 265 16 402 39 22 4 49 9 60
10 11 2 22 4 25 6 3 1 10 3 15 4 6 2 13 4 18 5 10 3 15 5 62 14 44 8 242 71
290 91 17 7 50 21 75 31 25 10 48 23 52 29 4 5 8 7 8 3 0 -15 269 140 333 192
7 5 41 33 77 62 36 29 75 64 87 77 13 13 23 20 23 15 0 -5 4 -4 8 2 4 7 39 46
77 89 39 42 94 109 122 148 29 40 57 77 61 83 5 5 15 21 22 35 7 13 16 26 19
29 35 29 206 407 226 500 2 8 4 15 5 15 1 0 3 7 5 15 2 8 15 58 29 110 25 96
32 127 42 190 3 19 7 40 9 47 6 19 19 124 19 165 1 21 3 38 6 38 6 0 6 0 13
213 3 86 9 162 12 167 3 6 3 10 -2 10 -4 0 -8 54 -8 120 0 66 -2 120 -5 120
-3 0 -6 24 -7 53 -1 47 -4 72 -18 187 -3 19 -10 55 -15 80 -6 25 -11 52 -11
60 -1 8 -8 42 -16 75 -9 33 -16 67 -17 75 -6 47 -75 251 -123 365 -40 92 -112
231 -154 293 -16 24 -29 45 -29 48 0 3 -11 17 -25 32 -14 15 -25 32 -25 39 0
6 -3 13 -8 15 -4 2 -25 26 -47 53 -94 119 -375 375 -412 375 -7 0 -13 5 -13
10 0 6 -6 10 -14 10 -8 0 -16 4 -18 8 -8 20 -226 134 -348 182 -67 27 -223 78
-253 84 -12 2 -58 13 -102 24 -44 11 -98 23 -120 26 -22 3 -49 7 -60 9 -21 5
-123 19 -165 23 -143 15 -1878 27 -1970 14z m659 -540 c15 7 27 8 40 0 14 -7
22 -7 26 0 5 8 11 8 20 0 10 -8 19 -8 34 0 15 7 27 8 40 0 14 -7 22 -7 26 0 5
8 11 8 20 0 10 -8 19 -8 34 0 15 7 27 8 40 0 14 -7 22 -7 26 0 5 8 11 8 20 0
10 -8 19 -8 34 0 15 7 27 8 40 0 14 -7 22 -7 26 0 5 8 11 8 20 0 10 -8 19 -8
34 0 15 7 27 8 40 0 14 -7 22 -7 26 0 5 8 11 7 21 -1 11 -9 14 -9 14 0 0 8 5
9 19 1 14 -7 22 -7 26 0 5 8 11 8 20 0 10 -8 19 -8 34 0 15 7 27 8 40 0 14 -7
22 -7 26 0 5 8 11 8 20 0 10 -8 19 -8 34 0 15 7 27 8 40 0 14 -7 22 -7 27 1 4
7 10 7 16 1 7 -7 19 -7 33 -2 13 5 25 7 27 4 3 -2 63 -7 134 -10 71 -3 135 -6
142 -7 6 0 12 -3 12 -6 0 -3 17 -6 38 -7 98 -2 308 -54 457 -113 54 -22 235
-117 235 -123 0 -5 5 -8 10 -8 14 0 72 -41 83 -57 4 -7 12 -13 17 -13 28 0
217 -196 279 -289 14 -20 27 -38 30 -41 10 -8 42 -64 48 -82 3 -10 10 -18 15
-18 5 0 6 -4 3 -10 -3 -5 -2 -10 3 -10 5 0 13 -10 17 -22 4 -13 8 -25 9 -28 1
-3 9 -19 19 -36 44 -84 133 -357 142 -439 1 -11 5 -38 10 -60 4 -21 9 -53 10
-70 2 -16 4 -30 5 -30 1 0 4 -20 6 -45 2 -25 6 -74 10 -110 13 -149 7 -471
-11 -605 -3 -16 -6 -46 -9 -65 -13 -98 -54 -274 -86 -372 -26 -78 -111 -272
-121 -276 -4 -2 -13 -19 -19 -38 -6 -19 -16 -34 -21 -34 -5 0 -9 -7 -9 -15 0
-8 -4 -15 -10 -15 -5 0 -10 -5 -10 -11 0 -6 -29 -48 -64 -93 -54 -69 -97 -114
-207 -218 -46 -43 -210 -145 -312 -193 -122 -57 -234 -94 -373 -124 -194 -42
-276 -46 -919 -46 l-580 0 0 1865 c0 1660 1 1866 15 1871 8 4 20 2 27 -3 7 -6
19 -5 32 2z"/>
<path d="M15063 15542 c-23 -2 -33 -9 -34 -20 -1 -9 -2 -1094 -2 -2410 l-2
-2394 33 4 c17 2 32 2 32 -2 0 -3 24 -5 54 -5 30 0 52 3 49 7 -2 5 7 4 21 -2
16 -6 26 -6 26 0 0 6 9 6 25 0 15 -6 26 -6 30 0 4 6 14 7 23 2 19 -9 54 -8 71
2 6 4 11 2 11 -4 0 -7 6 -8 18 -1 13 7 22 7 29 0 8 -8 13 -7 17 0 5 8 13 8 27
1 12 -7 19 -7 19 -1 0 9 38 7 48 -3 2 -3 13 -1 23 4 12 7 20 7 24 0 4 -7 12
-7 23 -1 16 9 17 171 18 2415 l0 2406 -50 0 c-28 0 -152 1 -276 3 -124 1 -240
1 -257 -1z"/>
<path d="M21458 15539 c-7 -4 -11 -802 -12 -2407 l-1 -2401 23 -10 c13 -7 22
-7 22 -1 0 6 9 6 25 0 16 -6 25 -6 25 0 0 8 28 2 50 -10 3 -2 15 2 28 9 15 8
22 8 22 1 0 -8 6 -8 20 0 14 8 20 8 20 0 0 -8 6 -8 20 0 14 8 20 8 20 0 0 -6
5 -8 11 -5 13 9 79 12 79 5 0 -3 24 -5 54 -5 30 0 52 3 49 7 -2 5 7 4 21 -2
16 -6 26 -6 26 0 0 6 9 6 25 0 15 -6 26 -6 30 0 4 7 13 6 25 0 10 -6 21 -7 23
-3 3 5 5 1091 4 2416 0 1767 -3 2407 -11 2407 -142 4 -591 3 -598 -1z"/>
<path d="M23124 15542 l-92 -3 1 -2409 c0 -2005 2 -2410 13 -2414 7 -3 16 -1
20 5 4 7 10 6 19 -1 9 -8 15 -8 20 0 4 7 12 7 26 0 13 -8 19 -7 19 0 0 7 6 8
19 0 14 -7 21 -6 24 3 3 9 7 9 17 0 8 -8 20 -9 36 -3 13 5 24 6 24 2 0 -4 29
-7 65 -7 36 0 65 3 65 7 0 4 11 3 25 -2 16 -6 25 -6 25 1 0 6 7 6 18 2 20 -10
64 -9 81 1 6 4 11 2 11 -4 0 -8 6 -8 20 0 15 8 20 8 20 -1 0 -8 7 -7 23 4 l22
14 0 1874 c0 1721 2 1874 17 1877 10 2 27 -13 44 -39 16 -23 36 -49 44 -59 8
-9 20 -24 25 -33 15 -24 178 -251 185 -257 3 -3 21 -27 39 -55 19 -27 37 -52
40 -55 4 -3 26 -34 51 -70 24 -36 52 -74 62 -84 10 -11 18 -23 18 -26 0 -4 9
-18 20 -31 11 -13 23 -28 28 -34 4 -5 23 -34 42 -62 19 -29 38 -53 42 -53 5 0
8 -7 8 -15 0 -8 5 -15 10 -15 6 0 10 -6 10 -14 0 -8 3 -16 8 -18 9 -4 68 -82
64 -85 -1 -2 6 -12 16 -22 29 -33 42 -50 42 -56 0 -5 6 -13 35 -48 6 -7 31
-41 55 -77 25 -36 50 -70 55 -76 6 -6 27 -35 48 -65 71 -100 376 -524 385
-534 12 -15 126 -175 137 -193 6 -10 16 -21 23 -25 6 -4 12 -15 12 -22 0 -8 4
-15 8 -15 4 0 21 -20 36 -44 15 -24 36 -53 47 -65 11 -12 17 -21 14 -21 -5 0
17 -29 43 -55 6 -8 12 -16 12 -19 0 -5 86 -125 110 -153 5 -7 10 -16 10 -22 0
-5 4 -11 8 -13 5 -1 41 -48 80 -103 40 -55 78 -109 86 -120 8 -11 66 -92 130
-180 117 -163 159 -221 224 -311 76 -103 192 -264 212 -294 13 -20 33 -45 58
-75 5 -6 11 -15 13 -20 2 -6 26 -40 53 -77 42 -57 52 -66 67 -57 13 7 19 6 19
-1 0 -8 6 -8 20 0 14 8 20 8 20 0 0 -8 6 -8 20 0 14 8 20 8 20 0 0 -6 5 -8 11
-5 13 9 79 12 79 5 0 -3 11 -5 25 -5 14 0 25 4 25 8 0 4 9 3 20 -3 12 -6 20
-7 20 -1 0 6 11 6 30 1 18 -5 30 -5 30 0 0 6 10 6 25 0 15 -6 26 -6 30 1 4 5
12 6 18 2 16 -10 48 -10 70 0 10 5 17 4 17 -3 0 -8 6 -8 20 0 14 8 20 8 20 0
0 -7 6 -8 19 0 18 9 19 24 19 287 0 153 1 283 2 288 1 6 2 12 1 15 -3 7 -3
453 -1 465 1 6 2 15 1 20 -3 14 -3 288 -1 300 1 6 2 12 1 15 -3 7 -3 453 -1
465 1 6 2 12 1 15 -3 7 -3 453 -1 465 1 6 2 15 0 20 -5 27 -1 205 5 214 3 6 3
11 -2 11 -9 0 -9 177 -1 186 3 3 2 21 -2 40 -5 20 -4 49 0 65 5 16 6 29 2 29
-8 0 -7 283 1 305 4 8 3 15 -1 15 -8 0 -8 178 0 186 3 3 2 21 -2 40 -5 20 -4
49 0 65 5 16 6 29 2 29 -6 0 -8 476 -2 540 1 14 1 27 1 30 -3 8 -3 454 -1 465
1 6 2 15 1 20 -1 6 -2 58 -2 118 l-1 107 -26 0 c-34 1 -493 1 -547 0 l-40 0 0
-1890 c0 -1511 -2 -1891 -12 -1895 -8 -2 -33 23 -59 58 -25 34 -74 102 -110
150 -35 48 -64 92 -64 97 0 4 -4 10 -8 12 -5 2 -33 37 -63 80 -121 171 -324
453 -329 458 -3 3 -19 25 -35 50 -17 25 -36 51 -43 59 -8 8 -24 30 -38 50 -60
91 -238 336 -246 339 -5 2 -8 10 -8 17 0 8 -6 18 -13 22 -7 4 -27 31 -45 58
-17 28 -43 63 -57 79 -14 16 -25 32 -25 36 0 4 -8 16 -18 27 -9 11 -40 53 -67
92 -49 70 -147 205 -164 227 -4 5 -27 37 -50 70 -23 32 -59 84 -81 114 -22 30
-59 82 -82 115 -23 33 -45 62 -50 63 -4 2 -6 8 -2 13 3 5 1 9 -4 9 -8 0 -59
68 -97 129 -5 9 -12 18 -15 21 -20 20 -70 91 -70 99 0 6 -4 11 -10 11 -5 0
-10 6 -10 14 0 8 -4 16 -8 18 -4 2 -23 25 -42 53 -19 27 -40 56 -47 65 -7 8
-46 62 -87 120 -41 58 -79 110 -84 115 -4 6 -27 37 -50 70 -23 33 -60 85 -82
115 -23 30 -59 82 -82 115 -23 33 -47 65 -52 72 -13 14 -167 228 -181 252 -13
21 -68 94 -76 101 -3 3 -12 15 -18 28 -7 13 -19 31 -27 40 -7 9 -19 25 -26 34
-12 16 -36 18 -223 20 -115 2 -251 2 -301 0z"/>
<path d="M28009 15542 l-47 -3 2 -2407 1 -2407 31 -1 c18 -1 39 -4 48 -7 8 -3
18 -2 21 3 4 7 13 6 25 0 13 -7 21 -7 25 0 4 7 13 7 26 0 13 -8 19 -7 19 0 0
7 6 8 19 0 13 -7 22 -7 26 0 4 7 13 7 26 0 12 -7 19 -7 19 -1 0 7 9 7 23 3 25
-9 59 -8 76 2 6 4 11 2 11 -4 0 -8 6 -8 20 0 14 8 20 8 20 0 0 -8 6 -8 20 0
14 8 20 8 20 0 0 -6 5 -8 11 -5 13 9 79 12 79 5 0 -3 24 -5 54 -5 30 0 52 3
49 7 -2 5 7 4 21 -2 16 -6 26 -6 26 0 0 6 9 6 25 0 15 -6 26 -6 30 0 4 6 14 7
23 2 19 -9 54 -8 71 2 6 4 11 2 11 -4 0 -8 6 -8 20 0 14 8 20 8 20 0 0 -8 6
-8 20 0 14 8 20 8 20 0 0 -7 6 -8 18 -1 21 11 30 11 59 0 13 -5 25 -4 28 1 4
7 13 6 25 0 13 -7 21 -7 25 0 4 7 13 7 26 0 13 -8 19 -7 19 0 0 7 6 8 19 0 13
-7 22 -7 26 0 4 7 13 7 26 0 12 -7 19 -7 19 -1 0 7 9 7 23 3 25 -9 59 -8 76 2
6 4 11 2 11 -4 0 -8 6 -8 20 0 14 8 20 8 20 0 0 -8 6 -8 20 0 14 8 20 8 20 0
0 -6 5 -8 11 -5 13 9 79 12 79 5 0 -3 24 -5 54 -5 30 0 52 3 49 7 -2 5 7 4 21
-2 16 -6 26 -6 26 0 0 6 9 6 25 0 15 -6 26 -6 30 0 4 6 14 7 23 2 19 -9 54 -8
71 2 6 4 11 2 11 -4 0 -8 6 -8 20 0 14 8 20 8 20 0 0 -8 6 -8 20 0 14 8 20 8
20 0 0 -7 7 -7 23 1 12 7 24 11 27 9 23 -13 50 -18 55 -10 4 7 13 6 25 0 13
-7 21 -7 25 0 4 7 13 7 26 0 13 -8 19 -7 19 0 0 7 6 8 19 0 13 -7 22 -7 26 0
4 7 13 7 26 0 12 -7 19 -7 19 -1 0 7 9 7 23 3 25 -9 59 -8 76 2 6 4 11 2 11
-4 0 -8 6 -8 20 0 14 8 20 8 20 0 0 -8 6 -8 20 0 14 8 20 8 20 0 0 -6 5 -8 11
-5 13 9 79 12 79 5 0 -3 24 -5 54 -5 30 0 52 3 49 7 -2 5 7 4 21 -2 16 -6 26
-6 26 0 0 6 9 6 25 0 15 -6 26 -6 30 0 4 6 14 7 23 2 19 -9 54 -8 71 2 6 4 11
2 11 -4 0 -8 6 -8 20 0 14 8 20 8 20 0 0 -8 6 -8 20 0 14 8 20 8 20 0 0 -7 7
-7 23 1 12 7 22 12 22 11 0 0 12 -5 27 -11 17 -6 29 -7 33 -1 4 7 13 6 25 0
13 -7 21 -7 25 0 4 7 13 7 26 0 19 -10 19 -5 19 265 l0 275 -32 0 c-18 1 -572
1 -1230 1 l-1197 1 1 828 0 828 1159 0 c638 0 1163 2 1166 6 3 3 7 123 7 266
l1 260 -35 1 c-19 0 -544 0 -1167 1 l-1132 0 0 774 c0 437 4 772 9 769 5 -3
12 -1 15 5 5 8 11 8 20 0 9 -8 15 -8 20 0 4 6 12 7 22 1 9 -5 29 -5 45 -1 16
5 30 5 34 -1 3 -5 11 -6 17 -2 16 10 38 10 60 0 10 -4 26 -3 38 3 15 8 24 8
34 0 9 -8 15 -8 20 0 4 7 12 7 26 0 13 -8 25 -7 40 0 15 8 24 8 34 0 9 -8 15
-8 20 0 4 7 12 7 26 0 13 -8 25 -7 40 0 15 8 24 8 34 0 9 -8 15 -8 20 0 4 7
12 7 26 0 13 -8 25 -7 40 0 15 8 24 8 34 0 9 -8 15 -8 20 0 4 7 12 7 26 0 13
-8 25 -7 40 0 15 8 24 8 34 0 9 -8 15 -8 20 0 4 7 12 7 26 0 14 -8 19 -7 19 1
0 9 3 9 14 0 10 -8 16 -9 21 -1 4 7 12 7 26 0 13 -8 25 -7 40 0 15 8 24 8 34
0 9 -8 15 -8 20 0 4 7 12 7 26 0 13 -8 25 -7 40 0 15 8 24 8 34 0 9 -8 15 -8
20 0 4 7 12 7 26 0 13 -8 25 -7 40 0 15 8 24 8 34 0 9 -8 15 -8 20 0 4 7 12 7
26 0 13 -8 25 -7 40 0 15 8 24 8 34 0 9 -8 15 -8 20 0 4 7 12 7 26 0 13 -8 25
-7 40 0 15 8 24 8 34 0 9 -8 15 -8 20 0 4 7 12 7 26 0 13 -8 25 -7 40 0 15 8
24 8 34 0 9 -8 15 -8 20 0 4 7 12 7 26 0 13 -8 25 -7 40 0 15 8 24 8 34 0 9
-8 15 -8 20 0 4 7 12 7 26 0 13 -8 25 -7 40 0 15 8 24 8 34 0 9 -8 15 -8 20 0
4 7 12 7 26 0 13 -8 25 -7 40 0 15 8 24 8 34 0 9 -8 15 -8 20 0 4 7 12 7 26 0
13 -8 25 -7 40 0 15 8 24 8 34 0 9 -8 15 -8 20 0 4 6 12 7 23 1 11 -6 24 -6
34 0 10 6 19 6 22 0 3 -5 21 -6 40 -1 19 4 40 4 46 0 7 -4 26 -4 41 0 16 5 31
5 34 1 2 -4 24 -5 49 -1 24 4 52 3 60 -2 15 -8 16 17 14 267 l-3 276 -1490 2
c-819 1 -1511 1 -1536 -1z"/>
</g>
</svg>
